<svg width="238" height="255" viewBox="0 0 238 255" fill="none" xmlns="http://www.w3.org/2000/svg">
<path d="M87.4451 145.657L110.29 142.637L112.799 148.705C112.441 149.176 112.085 149.649 111.732 150.124C103.486 166.222 94.6329 182.049 86.1867 198.026C94.6252 214.626 103.846 230.819 112.262 247.428C120.951 230.984 138.318 198.059 138.352 197.995L126.08 173.545L130.352 165.407L146.982 197.991C146.961 198.03 126.868 236.122 116.901 255L107.611 254.99C100.332 236.251 88.4526 218.228 78.8407 200.425C58.0985 200.923 37.0965 201.05 16.43 202.801C14.9665 200.331 13.5766 197.761 12.0914 195.315C33.4772 193.904 54.9984 193.711 76.4149 192.916C85.6277 178.746 94.2288 164.185 103.343 149.955C104.056 148.522 104.76 147.086 105.457 145.648C86.6692 146.35 50.3941 147.731 50.3051 147.734L35.2766 170.592L26.0965 170.959L45.9872 140.259C46.0285 140.258 71.5004 139.29 92.9574 138.477L87.4451 145.657ZM194.998 143.733C195.039 143.799 217.952 180.232 229.306 198.299L224.653 206.344C204.226 203.194 182.02 204.64 161.307 203.936C159.493 207.366 157.625 210.817 155.859 214.158L134.29 254.999L125.677 254.993L152.135 204.899C153.301 202.695 154.704 200.205 155.757 197.989C155.272 197.202 154.646 195.942 154.197 195.094L148.826 184.932C142.074 173.815 135.217 162.73 127.906 152.043C127.551 152.7 127.232 153.287 127.046 153.639L103.579 198.024L117.261 222.245L112.941 230.47L94.9591 198.032C94.9591 198.032 99.4608 189.539 101.676 185.343L116.416 157.454L119.099 163.941L127.908 142.637L135.639 143.659C135.725 143.821 135.809 143.976 135.887 144.124L157.207 184.468C159.669 188.464 162.138 192.454 164.63 196.424C183.219 197.413 201.847 197.521 220.432 198.534C210.533 182.768 190.686 151.211 190.686 151.211L163.385 149.619L158.477 141.849L194.998 143.733ZM126.165 194.107L131.577 197.81L126.353 201.303L120.861 211.717L115.418 201.549L109.979 197.838L115.381 194.098L120.832 183.794L126.165 194.107ZM237.576 75.333C224.658 91.4285 214.818 111.35 203.875 128.922C207.083 133.831 210.309 139.153 213.43 144.125L238 183.233L233.688 190.693L203.554 142.722C202.229 140.61 200.775 138.149 199.384 136.129C198.46 136.156 197.056 136.068 196.097 136.033L143.611 134.082C144.259 134.895 146.02 137.848 146.637 138.83L173.325 181.354L201.132 181.61L206.091 189.466L169.022 188.827C169.002 188.795 163.916 180.672 161.396 176.663L141.133 144.385L150.753 145.657L136.716 127.373L138.913 124.512C158.896 123.338 178.982 123.119 198.978 122.377C209.128 106.766 218.536 90.6805 228.705 75.0841C210.131 75.7776 172.961 77.1924 172.868 77.1959L157.84 100.053L148.66 100.421L168.55 69.7206C168.609 69.7184 211.618 68.0822 232.939 67.2783L237.576 75.333ZM68.9168 71.8737C68.9462 71.9204 81.5983 92.0408 92.7581 109.791L87.4451 109.089L101.482 127.373L96.2773 134.152C81.4138 132.115 65.6846 132.349 50.3257 132.305L49.3904 132.341C46.8996 132.433 44.0421 132.462 41.598 132.657C41.1594 133.471 40.3815 134.643 39.8717 135.456L11.9393 179.956C12.9674 179.802 16.404 179.752 17.5625 179.708L67.7168 177.848L81.8421 153.883L91.1224 153.514L72.0338 185.312C71.9998 185.313 62.4233 185.659 57.6919 185.837L16.5838 187.368C13.7493 187.472 10.5212 187.51 7.72067 187.716C6.20412 185.091 4.50948 182.303 3.08397 179.649C3.66699 178.841 4.36588 177.663 4.90565 176.805L30.5308 135.993C31.5053 134.442 32.5865 132.768 33.6629 131.08C22.7222 113.149 11.9956 94.7774 0 77.5359C1.40648 75.033 2.93548 72.5438 4.31017 70.034C16.2244 87.8575 27.1526 106.407 38.5492 124.565C40.5423 124.671 42.5359 124.767 44.5299 124.855C48.2234 124.721 51.9495 124.618 55.5429 124.485L92.1119 123.111C81.7434 106.605 64.6045 79.3524 64.6045 79.3524L37.3041 77.7603L32.3959 69.9901L68.9168 71.8737ZM187.55 163.262L193.818 173.228L182.296 172.859L176.364 175.717L175.827 169.165L169.633 159.291L181.228 159.827L187.138 156.99L187.55 163.262ZM59.1695 156.476L70.9292 156.029L64.8489 165.827L64.3566 172.396L58.4172 169.585L46.7726 170.015L53.0338 160.236L53.533 153.697L59.1695 156.476ZM107.832 118.444L107.607 118.834L107.319 118.376L107.832 118.444ZM114.951 0.0172873C105.48 19.2518 94.8867 37.9948 84.8668 56.948C93.3053 73.5478 102.526 89.7413 110.942 106.351C113.174 102.126 115.978 96.8144 118.914 91.2516L110.29 112.109L102.756 111.113L77.4727 70.8631C76.1478 68.751 74.6936 66.2899 73.3026 64.2699C72.3787 64.2969 70.9747 64.2094 70.0162 64.174L17.5294 62.2225C18.1775 63.0357 19.9391 65.989 20.5558 66.971L47.2435 109.495L75.0508 109.751L80.0102 117.607L42.9406 116.968C42.921 116.936 37.8348 108.813 35.3149 104.804L13.4362 69.9523C11.9283 67.5489 10.2816 64.771 8.70282 62.4478C10.2174 59.821 11.7831 56.9589 13.3675 54.3969C14.3592 54.4977 15.7282 54.5141 16.7406 54.5529L64.8816 56.3488C68.4637 56.4845 72.6637 56.7407 76.3367 56.7911C86.5222 38.0738 97.2434 19.3292 106.303 0.0336211C109.172 0.000746196 112.091 0.081127 114.951 0.0172873ZM123.715 0.0297526C126.746 0.0286321 130.006 -0.0461048 133.016 0.0456566C133.425 0.95524 134.095 2.14979 134.567 3.04635L157.083 45.6544C158.542 48.4189 160.156 51.6363 161.734 54.5409C167.122 54.2742 172.761 54.145 178.106 53.946L224.244 52.2129L228.545 59.6788L171.954 61.8022C169.463 61.894 166.605 61.9234 164.161 62.1185C163.723 62.9325 162.945 64.1049 162.435 64.9176L139.836 100.921L135.392 109.335C136.837 109.243 139.203 109.204 140.126 109.17L190.28 107.309L204.405 83.3443L213.686 82.9755L194.597 114.774C194.563 114.775 184.987 115.12 180.255 115.299L144.978 116.612L150.753 109.089L127.908 112.109L126.279 108.171C126.692 107.528 127.115 106.828 127.469 106.266L133.311 96.9616L150.815 63.8211C151.981 61.6171 153.384 59.1267 154.437 56.9115C153.952 56.1245 153.326 54.8642 152.877 54.0161L128.323 7.56481C127.943 8.53298 126.267 11.536 125.726 12.5612L102.259 56.9459L115.941 81.1668L111.621 89.3917L93.6393 56.954C93.6567 56.9211 98.1448 48.4532 100.355 44.2652L119.585 7.88332C120.912 5.37505 122.493 2.5593 123.715 0.0297526ZM61.4694 91.4034L67.737 101.369L56.2148 101L50.2828 103.858L49.7461 97.3063L43.5516 87.4321L55.1468 87.9677L61.0569 85.1307L61.4694 91.4034ZM181.733 85.9375L193.492 85.4901L187.412 95.2887L186.92 101.857L180.98 99.0463L169.336 99.4766L175.597 89.6978L176.096 83.1586L181.733 85.9375ZM145.662 56.9132C145.662 56.9132 133.102 80.7205 122.913 100.029L119.121 90.8596C127.572 74.8494 137.026 56.9293 137.032 56.9166L124.76 32.467L129.032 24.3293L145.662 56.9132ZM124.846 53.03L130.256 56.7318L125.032 60.2255L119.54 70.6388L114.098 60.4718L108.658 56.7606L114.062 53.0193L119.512 42.7156L124.846 53.03Z" fill="url(#paint0_linear_62_704)"/>
<path d="M127.908 112.109L150.753 109.089L136.716 127.373L150.753 145.657L127.908 142.637L119.099 163.941L110.29 142.637L87.4451 145.657L101.482 127.373L87.4451 109.089L110.29 112.109L119.099 90.8058L127.908 112.109ZM114.451 119.319L102.396 117.725L109.803 127.373L102.396 137.021L114.451 135.428L119.099 146.669L123.747 135.428L135.802 137.021L128.396 127.373L135.802 117.725L123.747 119.319L119.099 108.078L114.451 119.319Z" fill="url(#paint1_linear_62_704)"/>
<defs>
<linearGradient id="paint0_linear_62_704" x1="34.4277" y1="255" x2="364.009" y2="-3.48456" gradientUnits="userSpaceOnUse">
<stop stop-color="#AE25C9" stop-opacity="0.2"/>
<stop offset="1" stop-color="#AE25C9"/>
</linearGradient>
<linearGradient id="paint1_linear_62_704" x1="34.4277" y1="255" x2="364.009" y2="-3.48456" gradientUnits="userSpaceOnUse">
<stop stop-color="#AE25C9" stop-opacity="0.2"/>
<stop offset="1" stop-color="#AE25C9"/>
</linearGradient>
</defs>
</svg>
