<svg width="796" height="105" viewBox="0 0 796 105" fill="none" xmlns="http://www.w3.org/2000/svg">
<path d="M0 80.3058H1.48319C6.32831 95.6861 15.5242 103.376 29.0708 103.376C35.3002 103.376 40.2442 101.897 43.9028 98.9396C47.5613 95.9819 49.3906 91.9889 49.3906 86.9607C49.3906 82.8199 48.204 79.5664 45.8309 77.2002C43.4578 74.7354 40.4914 72.7636 36.9317 71.2847C33.372 69.7072 29.5157 68.3762 25.3627 67.2917C21.3087 66.1086 17.5018 64.7283 13.9421 63.1509C10.3824 61.4748 7.41599 59.3551 5.04287 56.7917C2.66975 54.2283 1.48319 50.7283 1.48319 46.2917C1.48319 35.3481 9.83858 29.8762 26.5493 29.8762H51.0221C53.3952 29.8762 54.9279 29.3833 55.62 28.3973H57.1033V43.1861H55.62V42.4467C55.62 38.7002 53.9885 35.9396 50.7255 34.165C47.4624 32.2917 43.3589 31.3551 38.4149 31.3551H27.1426C20.4187 31.3551 15.2275 32.1931 11.569 33.8692C8.0093 35.5452 6.22945 37.9114 6.22945 40.9678C6.22945 43.7283 7.61377 45.8974 10.3824 47.4748C13.1511 49.0523 16.5624 50.4326 20.6165 51.6157C24.7694 52.7988 29.2685 54.0312 34.1136 55.3128C38.9587 56.4959 43.4084 58.1227 47.4624 60.1931C51.6154 62.165 55.0762 64.7776 57.8449 68.0312C60.6135 71.2847 61.9978 75.5734 61.9978 80.8974C61.9978 88.3903 59.1303 94.2565 53.3952 98.496C47.6602 102.735 39.7498 104.855 29.664 104.855C24.9178 104.855 20.1221 104.362 15.277 103.376C10.4318 102.39 5.33952 100.862 0 98.7917V80.3058Z" fill="url(#paint0_linear_62_694)"/>
<path d="M69.415 29.8762H72.3814C82.8627 29.8762 91.218 27.7072 97.4475 23.3692C103.776 18.9326 107.434 13.0171 108.423 5.6227H124.738C124.738 8.38327 124.145 11.0452 122.959 13.6086C121.772 16.0734 120.239 18.3903 118.361 20.5593C116.581 22.6297 114.603 24.503 112.428 26.179C110.351 27.7565 108.374 28.9889 106.495 29.8762H127.112C128.496 29.8762 129.534 29.5805 130.226 28.9889C130.918 28.3974 131.363 27.7072 131.561 26.9185H133.044V31.3551H111.538C107.187 31.3551 103.183 32.1438 99.5239 33.7213C95.8654 35.2002 92.7013 37.3692 90.0315 40.2283C87.4606 42.9889 85.4335 46.2917 83.9503 50.1368C82.566 53.9819 81.8739 58.2706 81.8739 63.003C81.8739 68.0312 82.7144 72.7143 84.3953 77.0523C86.0763 81.3903 88.3999 85.1368 91.3664 88.2917C94.4316 91.3481 97.9913 93.7636 102.045 95.5382C106.198 97.3129 110.697 98.2002 115.543 98.2002C118.904 98.2002 122.019 97.8058 124.887 97.0171C127.853 96.2284 130.82 94.8974 133.786 93.0241L134.676 94.2072C126.765 101.306 117.372 104.855 106.495 104.855C100.859 104.855 95.6676 103.968 90.9214 102.193C86.274 100.418 82.22 97.9537 78.7592 94.7988C75.3972 91.5453 72.7275 87.7002 70.7499 83.2636C68.8711 78.8269 67.9318 73.9467 67.9318 68.6227C67.9318 63.9889 68.6734 59.6509 70.1566 55.6086C71.6398 51.5664 73.7163 47.9185 76.386 44.665C79.0558 41.4114 82.2694 38.6509 86.0268 36.3833C89.7843 34.1157 93.9867 32.4396 98.634 31.3551H69.415V29.8762Z" fill="url(#paint1_linear_62_694)"/>
<path d="M143.531 44.3692L147.091 28.9889H148.426C148.623 29.5805 149.068 29.8762 149.76 29.8762H172.453C179.573 29.8762 185.011 30.9607 188.769 33.1298C192.526 35.2002 195.344 38.7988 197.223 43.9255L216.801 96.2776C217.592 98.4467 218.68 100.024 220.064 101.01C221.449 101.897 223.278 102.341 225.552 102.341H225.849V103.82C218.136 104.51 212.253 103.82 208.199 101.749C204.144 99.5805 201.03 95.6368 198.854 89.9185L197.075 85.0382C193.416 91.2495 188.818 96.0805 183.281 99.5312C177.842 102.883 172.008 104.559 165.779 104.559C161.824 104.559 158.116 103.869 154.655 102.489C151.194 101.01 148.228 98.9889 145.756 96.4255C143.284 93.7636 141.306 90.6579 139.823 87.1086C138.439 83.5593 137.746 79.7143 137.746 75.5734C137.746 66.1086 141.356 58.8621 148.574 53.834C155.891 48.7072 166.273 46.1438 179.721 46.1438H182.539L179.276 37.4185C178.485 35.2495 177.397 33.7213 176.013 32.834C174.629 31.8481 172.799 31.3551 170.525 31.3551H163.406C158.66 31.3551 154.754 32.0945 151.689 33.5734C148.722 35.0523 146.695 37.9607 145.607 42.2988L145.014 44.8129L143.531 44.3692ZM179.276 47.6227C161.379 47.6227 152.43 55.1157 152.43 70.1016C152.43 74.1438 153.023 77.841 154.21 81.1931C155.397 84.5453 157.028 87.4537 159.105 89.9185C161.28 92.2847 163.851 94.1579 166.817 95.5382C169.883 96.8199 173.195 97.4607 176.755 97.4607C180.215 97.4607 183.182 96.8692 185.654 95.6861C188.225 94.4044 190.153 92.6298 191.438 90.3621C192.823 88.0945 193.564 85.4326 193.663 82.3762C193.861 79.2213 193.367 75.8199 192.18 72.172L183.132 47.6227H179.276Z" fill="url(#paint2_linear_62_694)"/>
<path d="M231.078 102.341H231.375C233.352 102.341 234.934 101.799 236.121 100.714C237.308 99.6298 237.901 98.1509 237.901 96.2776V37.4185C237.901 35.5452 237.308 34.0664 236.121 32.9819C234.934 31.8974 233.352 31.3551 231.375 31.3551H231.078V29.8762H244.13C247.196 29.8762 249.371 30.4678 250.656 31.6509C252.041 32.834 252.733 34.7565 252.733 37.4185V63.7424C253.821 57.6298 255.304 52.3058 257.182 47.7706C259.16 43.2354 261.385 39.4889 263.857 36.5312C266.428 33.5734 269.147 31.4537 272.014 30.172C274.981 28.8903 277.947 28.4467 280.914 28.841C283.188 29.0382 284.968 29.8762 286.253 31.3551C287.638 32.834 288.33 34.7072 288.33 36.9748C288.33 39.4396 287.588 41.4114 286.105 42.8903C284.622 44.3692 282.644 45.1086 280.172 45.1086C277.7 45.1086 275.722 44.3692 274.239 42.8903C272.756 41.4114 272.014 39.4396 272.014 36.9748C270.432 36.9748 268.554 37.665 266.378 39.0452C264.203 40.4255 262.077 42.841 260 46.2917C258.023 49.6438 256.292 54.2776 254.809 60.1931C253.425 66.01 252.733 73.4044 252.733 82.3762V96.2776C252.733 98.1509 253.326 99.6298 254.513 100.714C255.699 101.799 257.281 102.341 259.259 102.341H259.556V103.82H231.078V102.341Z" fill="url(#paint3_linear_62_694)"/>
<path d="M314.049 102.042H314.346C316.323 102.042 317.906 101.5 319.092 100.416C320.279 99.331 320.872 97.8521 320.872 95.9789V7.54225C320.872 5.66901 320.279 4.19014 319.092 3.10563C317.906 2.02112 316.323 1.47887 314.346 1.47887H314.049V0H327.101C330.167 0 332.342 0.591544 333.627 1.77464C335.012 2.95774 335.704 4.88028 335.704 7.54225V95.9789C335.704 97.8521 336.297 99.331 337.484 100.416C338.67 101.5 340.252 102.042 342.23 102.042H351.871C357.408 102.042 361.858 100.317 365.22 96.8662C368.68 93.3169 371.103 88.9296 372.487 83.7042C373.872 78.3803 374.317 72.662 373.822 66.5493C373.328 60.4366 371.944 54.7676 369.669 49.5423C367.395 44.2183 364.231 39.831 360.177 36.3803C356.123 32.831 351.278 31.0563 345.641 31.0563H343.268V29.5775H354.837C362.55 29.5775 368.928 31.4014 373.971 35.0493C379.013 38.6972 382.771 43.2817 385.243 48.8028C387.715 54.2254 388.901 60.1409 388.803 66.5493C388.803 72.9578 387.517 78.9225 384.946 84.4437C382.375 89.8662 378.568 94.4014 373.526 98.0493C368.483 101.697 362.253 103.521 354.837 103.521H314.049V102.042Z" fill="url(#paint4_linear_62_694)"/>
<path d="M400.151 44.0704L403.711 28.6901H405.046C405.244 29.2817 405.689 29.5775 406.381 29.5775H429.074C436.193 29.5775 441.632 30.662 445.389 32.831C449.146 34.9014 451.964 38.5 453.843 43.6267L473.421 95.9789C474.213 98.1479 475.3 99.7254 476.685 100.711C478.069 101.599 479.898 102.042 482.172 102.042H482.469V103.521C474.756 104.211 468.873 103.521 464.819 101.451C460.765 99.2817 457.65 95.338 455.475 89.6197L453.695 84.7394C450.036 90.9507 445.438 95.7817 439.901 99.2324C434.463 102.584 428.629 104.261 422.399 104.261C418.444 104.261 414.736 103.57 411.275 102.19C407.815 100.711 404.848 98.6901 402.376 96.1267C399.904 93.4648 397.927 90.3592 396.443 86.8099C395.059 83.2606 394.367 79.4155 394.367 75.2746C394.367 65.8099 397.976 58.5634 405.194 53.5352C412.511 48.4085 422.894 45.8451 436.341 45.8451H439.16L435.897 37.1197C435.105 34.9507 434.018 33.4225 432.633 32.5352C431.249 31.5493 429.42 31.0563 427.146 31.0563H420.026C415.28 31.0563 411.374 31.7958 408.309 33.2746C405.343 34.7535 403.316 37.662 402.228 42L401.635 44.5141L400.151 44.0704ZM435.897 47.3239C417.999 47.3239 409.051 54.8169 409.051 69.8028C409.051 73.8451 409.644 77.5423 410.83 80.8944C412.017 84.2465 413.648 87.1549 415.725 89.6197C417.9 91.9859 420.471 93.8591 423.438 95.2394C426.503 96.5211 429.815 97.162 433.375 97.162C436.836 97.162 439.802 96.5704 442.274 95.3873C444.845 94.1056 446.773 92.331 448.059 90.0634C449.443 87.7958 450.185 85.1338 450.284 82.0775C450.481 78.9225 449.987 75.5211 448.8 71.8733L439.753 47.3239H435.897Z" fill="url(#paint5_linear_62_694)"/>
<path d="M488.371 102.042L533.608 37.1197C534.696 35.4437 534.844 34.0141 534.053 32.831C533.361 31.6479 532.026 31.0563 530.049 31.0563H527.082C506.416 31.0563 494.007 37.4648 489.854 50.2817H488.371V28.0986H489.854C490.052 28.4929 490.595 28.838 491.485 29.1338C492.474 29.4296 493.463 29.5775 494.452 29.5775H555.411V31.0563L510.174 95.9789C509.086 97.6549 508.888 99.0845 509.58 100.268C510.371 101.451 511.756 102.042 513.733 102.042H516.7C537.366 102.042 549.775 95.6338 553.928 82.8169H555.411V105H553.928C553.73 104.606 553.137 104.261 552.148 103.965C551.258 103.669 550.319 103.521 549.33 103.521H488.371V102.042Z" fill="url(#paint6_linear_62_694)"/>
<path d="M567.156 44.0704L570.716 28.6901H572.051C572.249 29.2817 572.694 29.5775 573.386 29.5775H596.079C603.198 29.5775 608.636 30.662 612.394 32.831C616.151 34.9014 618.969 38.5 620.848 43.6267L640.426 95.9789C641.217 98.1479 642.305 99.7254 643.689 100.711C645.074 101.599 646.903 102.042 649.177 102.042H649.474V103.521C641.761 104.211 635.878 103.521 631.824 101.451C627.77 99.2817 624.655 95.338 622.48 89.6197L620.7 84.7394C617.041 90.9507 612.443 95.7817 606.906 99.2324C601.468 102.584 595.634 104.261 589.404 104.261C585.449 104.261 581.741 103.57 578.28 102.19C574.819 100.711 571.853 98.6901 569.381 96.1267C566.909 93.4648 564.931 90.3592 563.448 86.8099C562.064 83.2606 561.372 79.4155 561.372 75.2746C561.372 65.8099 564.981 58.5634 572.199 53.5352C579.516 48.4085 589.899 45.8451 603.346 45.8451H606.164L602.901 37.1197C602.11 34.9507 601.023 33.4225 599.638 32.5352C598.254 31.5493 596.425 31.0563 594.151 31.0563H587.031C582.285 31.0563 578.379 31.7958 575.314 33.2746C572.348 34.7535 570.32 37.662 569.233 42L568.64 44.5141L567.156 44.0704ZM602.901 47.3239C585.004 47.3239 576.055 54.8169 576.055 69.8028C576.055 73.8451 576.649 77.5423 577.835 80.8944C579.022 84.2465 580.653 87.1549 582.73 89.6197C584.905 91.9859 587.476 93.8591 590.443 95.2394C593.508 96.5211 596.82 97.162 600.38 97.162C603.841 97.162 606.807 96.5704 609.279 95.3873C611.85 94.1056 613.778 92.331 615.064 90.0634C616.448 87.7958 617.19 85.1338 617.288 82.0775C617.486 78.9225 616.992 75.5211 615.805 71.8733L606.758 47.3239H602.901Z" fill="url(#paint7_linear_62_694)"/>
<path d="M650.441 44.0704L654 28.6901H655.335C655.533 29.2817 655.978 29.5775 656.67 29.5775H679.363C686.483 29.5775 691.921 30.662 695.678 32.831C699.436 34.9014 702.254 38.5 704.133 43.6267L723.711 95.9789C724.502 98.1479 725.59 99.7254 726.974 100.711C728.358 101.599 730.188 102.042 732.462 102.042H732.758V103.521C725.046 104.211 719.162 103.521 715.108 101.451C711.054 99.2817 707.939 95.338 705.764 89.6197L703.984 84.7394C700.326 90.9507 695.728 95.7817 690.191 99.2324C684.752 102.584 678.918 104.261 672.689 104.261C668.734 104.261 665.026 103.57 661.565 102.19C658.104 100.711 655.138 98.6901 652.666 96.1267C650.194 93.4648 648.216 90.3592 646.733 86.8099C645.348 83.2606 644.656 79.4155 644.656 75.2746C644.656 65.8099 648.265 58.5634 655.484 53.5352C662.801 48.4085 673.183 45.8451 686.631 45.8451H689.449L686.186 37.1197C685.395 34.9507 684.307 33.4225 682.923 32.5352C681.539 31.5493 679.709 31.0563 677.435 31.0563H670.316C665.569 31.0563 661.664 31.7958 658.598 33.2746C655.632 34.7535 653.605 37.662 652.517 42L651.924 44.5141L650.441 44.0704ZM686.186 47.3239C668.289 47.3239 659.34 54.8169 659.34 69.8028C659.34 73.8451 659.933 77.5423 661.12 80.8944C662.306 84.2465 663.938 87.1549 666.014 89.6197C668.19 91.9859 670.761 93.8591 673.727 95.2394C676.792 96.5211 680.105 97.162 683.665 97.162C687.125 97.162 690.092 96.5704 692.564 95.3873C695.135 94.1056 697.063 92.331 698.348 90.0634C699.732 87.7958 700.474 85.1338 700.573 82.0775C700.771 78.9225 700.276 75.5211 699.09 71.8733L690.042 47.3239H686.186Z" fill="url(#paint8_linear_62_694)"/>
<path d="M738.748 102.042H739.045C741.023 102.042 742.605 101.5 743.791 100.416C744.978 99.331 745.571 97.8521 745.571 95.9789V37.1197C745.571 35.2465 744.978 33.7676 743.791 32.6831C742.605 31.5986 741.023 31.0563 739.045 31.0563H738.748V29.5775H751.801C754.866 29.5775 757.041 30.169 758.327 31.3521C759.711 32.5352 760.403 34.4577 760.403 37.1197V63.4437C761.491 57.331 762.974 52.007 764.853 47.4718C766.83 42.9366 769.055 39.1901 771.527 36.2324C774.098 33.2746 776.817 31.1549 779.685 29.8732C782.651 28.5916 785.618 28.1479 788.584 28.5422C790.858 28.7394 792.638 29.5775 793.923 31.0563C795.308 32.5352 796 34.4084 796 36.6761C796 39.1408 795.258 41.1127 793.775 42.5915C792.292 44.0704 790.314 44.8099 787.842 44.8099C785.37 44.8099 783.393 44.0704 781.91 42.5915C780.426 41.1127 779.685 39.1408 779.685 36.6761C778.103 36.6761 776.224 37.3662 774.049 38.7465C771.873 40.1268 769.747 42.5422 767.671 45.993C765.693 49.3451 763.963 53.9789 762.48 59.8944C761.095 65.7113 760.403 73.1056 760.403 82.0775V95.9789C760.403 97.8521 760.996 99.331 762.183 100.416C763.37 101.5 764.952 102.042 766.929 102.042H767.226V103.521H738.748V102.042Z" fill="url(#paint9_linear_62_694)"/>
<defs>
<linearGradient id="paint0_linear_62_694" x1="389.123" y1="105" x2="414.537" y2="-120.946" gradientUnits="userSpaceOnUse">
<stop stop-color="#AE25C9" stop-opacity="0.6"/>
<stop offset="1" stop-color="#FFE7ED"/>
</linearGradient>
<linearGradient id="paint1_linear_62_694" x1="389.123" y1="105" x2="414.537" y2="-120.946" gradientUnits="userSpaceOnUse">
<stop stop-color="#AE25C9" stop-opacity="0.6"/>
<stop offset="1" stop-color="#FFE7ED"/>
</linearGradient>
<linearGradient id="paint2_linear_62_694" x1="389.123" y1="105" x2="414.537" y2="-120.946" gradientUnits="userSpaceOnUse">
<stop stop-color="#AE25C9" stop-opacity="0.6"/>
<stop offset="1" stop-color="#FFE7ED"/>
</linearGradient>
<linearGradient id="paint3_linear_62_694" x1="389.123" y1="105" x2="414.537" y2="-120.946" gradientUnits="userSpaceOnUse">
<stop stop-color="#AE25C9" stop-opacity="0.6"/>
<stop offset="1" stop-color="#FFE7ED"/>
</linearGradient>
<linearGradient id="paint4_linear_62_694" x1="389.123" y1="105" x2="414.537" y2="-120.946" gradientUnits="userSpaceOnUse">
<stop stop-color="#AE25C9" stop-opacity="0.6"/>
<stop offset="1" stop-color="#FFE7ED"/>
</linearGradient>
<linearGradient id="paint5_linear_62_694" x1="389.123" y1="105" x2="414.537" y2="-120.946" gradientUnits="userSpaceOnUse">
<stop stop-color="#AE25C9" stop-opacity="0.6"/>
<stop offset="1" stop-color="#FFE7ED"/>
</linearGradient>
<linearGradient id="paint6_linear_62_694" x1="389.123" y1="105" x2="414.537" y2="-120.946" gradientUnits="userSpaceOnUse">
<stop stop-color="#AE25C9" stop-opacity="0.6"/>
<stop offset="1" stop-color="#FFE7ED"/>
</linearGradient>
<linearGradient id="paint7_linear_62_694" x1="389.123" y1="105" x2="414.537" y2="-120.946" gradientUnits="userSpaceOnUse">
<stop stop-color="#AE25C9" stop-opacity="0.6"/>
<stop offset="1" stop-color="#FFE7ED"/>
</linearGradient>
<linearGradient id="paint8_linear_62_694" x1="389.123" y1="105" x2="414.537" y2="-120.946" gradientUnits="userSpaceOnUse">
<stop stop-color="#AE25C9" stop-opacity="0.6"/>
<stop offset="1" stop-color="#FFE7ED"/>
</linearGradient>
<linearGradient id="paint9_linear_62_694" x1="389.123" y1="105" x2="414.537" y2="-120.946" gradientUnits="userSpaceOnUse">
<stop stop-color="#AE25C9" stop-opacity="0.6"/>
<stop offset="1" stop-color="#FFE7ED"/>
</linearGradient>
</defs>
</svg>
